<svg width="37" height="37" viewBox="0 0 37 37" fill="none" xmlns="http://www.w3.org/2000/svg">
<path d="M16.9583 23.125H20.0417C20.8594 23.125 21.6437 22.8002 22.2219 22.2219C22.8001 21.6437 23.125 20.8594 23.125 20.0417C23.125 19.2239 22.8001 18.4397 22.2219 17.8614C21.6437 17.2832 20.8594 16.9583 20.0417 16.9583H15.4167C14.4917 16.9583 13.7208 17.2667 13.2583 17.8833L4.625 26.2083" stroke="#383838" stroke-width="2" stroke-linecap="round" stroke-linejoin="round"/>
<path d="M10.7917 32.375L13.2584 30.2167C13.7209 29.6 14.4917 29.2917 15.4167 29.2917H21.5834C23.2792 29.2917 24.8209 28.675 25.9001 27.4417L32.9917 20.6583C33.5867 20.0961 33.9339 19.3206 33.957 18.5024C33.9801 17.6842 33.6773 16.8903 33.1151 16.2954C32.5529 15.7005 31.7774 15.3533 30.9592 15.3302C30.141 15.307 29.3471 15.6099 28.7522 16.1721L22.2772 22.1846" stroke="#383838" stroke-width="2" stroke-linecap="round" stroke-linejoin="round"/>
<path d="M3.08325 24.6667L12.3333 33.9167" stroke="#383838" stroke-width="2" stroke-linecap="round" stroke-linejoin="round"/>
<path d="M24.6666 18.3458C27.1358 18.3458 29.1375 16.3442 29.1375 13.875C29.1375 11.4058 27.1358 9.40417 24.6666 9.40417C22.1975 9.40417 20.1958 11.4058 20.1958 13.875C20.1958 16.3442 22.1975 18.3458 24.6666 18.3458Z" stroke="#383838" stroke-width="2" stroke-linecap="round" stroke-linejoin="round"/>
<path d="M9.25 12.3333C11.8043 12.3333 13.875 10.2627 13.875 7.70834C13.875 5.15403 11.8043 3.08334 9.25 3.08334C6.69568 3.08334 4.625 5.15403 4.625 7.70834C4.625 10.2627 6.69568 12.3333 9.25 12.3333Z" stroke="#383838" stroke-width="2" stroke-linecap="round" stroke-linejoin="round"/>
</svg>
