<svg width="37" height="37" viewBox="0 0 37 37" fill="none" xmlns="http://www.w3.org/2000/svg">
<path d="M6.16675 3.08334V33.9167L9.25008 32.375L12.3334 33.9167L15.4167 32.375L18.5001 33.9167L21.5834 32.375L24.6667 33.9167L27.7501 32.375L30.8334 33.9167V3.08334L27.7501 4.62501L24.6667 3.08334L21.5834 4.62501L18.5001 3.08334L15.4167 4.62501L12.3334 3.08334L9.25008 4.62501L6.16675 3.08334Z" stroke="#383838" stroke-width="2" stroke-linecap="round" stroke-linejoin="round"/>
<path d="M24.6666 12.3333H15.4166C14.5988 12.3333 13.8146 12.6582 13.2363 13.2364C12.6581 13.8147 12.3333 14.5989 12.3333 15.4167C12.3333 16.2344 12.6581 17.0187 13.2363 17.5969C13.8146 18.1752 14.5988 18.5 15.4166 18.5H21.5833C22.401 18.5 23.1853 18.8249 23.7635 19.4031C24.3417 19.9813 24.6666 20.7656 24.6666 21.5833C24.6666 22.4011 24.3417 23.1854 23.7635 23.7636C23.1853 24.3418 22.401 24.6667 21.5833 24.6667H12.3333" stroke="#383838" stroke-width="2" stroke-linecap="round" stroke-linejoin="round"/>
<path d="M18.5 26.9792V10.0208" stroke="#383838" stroke-width="2" stroke-linecap="round" stroke-linejoin="round"/>
</svg>
